Coordinates
version=1
nRows=5
nColumns=42
inDegrees=yes

Units are S.I. units (second, meters, Newtons, ...)
If the header above contains a line with 'inDegrees', this indicates whether rotational values are in degrees (yes) or radians (no).

endheader
time	pelvis_tilt	pelvis_list	pelvis_rotation	pelvis_tx	pelvis_ty	pelvis_tz	hip_flexion_r	hip_adduction_r	hip_rotation_r	knee_angle_r	knee_adduction_r	knee_angle_r_beta	ankle_angle_r	subtalar_angle_r	mtp_angle_r	hip_flexion_l	hip_adduction_l	hip_rotation_l	knee_angle_l	knee_adduction_l	knee_angle_l_beta	ankle_angle_l	subtalar_angle_l	mtp_angle_l	lumbar_extension	lumbar_bending	lumbar_rotation	arm_flex_r	arm_add_r	arm_rot_r	elbow_flex_r	pro_sup_r	wrist_flex_r	wrist_dev_r	arm_flex_l	arm_add_l	arm_rot_l	elbow_flex_l	pro_sup_l	wrist_flex_l	wrist_dev_l
      1.87000000	     24.01061427	      7.32793313	      1.57117558	     -0.41379365	      0.92205406	      0.11719995	    -14.95997746	    -13.82739465	    -39.19166024	     65.36153124	    -18.72604535	      1.14077392	     16.26124362	     22.59750725	     -7.51296182	    -14.85432072	     12.61550637	    -13.27409395	     21.93714784	    -10.05067922	      0.38287546	     27.99330538	     31.56856859	     -7.51296182	    -50.70030604	     -3.29583014	     -4.24770553	      3.45575213	    -13.91260025	     -0.68944980	     43.20689088	     90.00000001	      0.00000000	      0.00000000	      3.20426991	    -12.35382679	     -6.03536133	     42.60284572	     90.00000001	      0.00000000	      0.00000000
      1.88000000	     23.91742075	      7.21001590	      1.65331460	     -0.40174603	      0.92303012	      0.11710728	    -12.59526762	    -13.82100140	    -39.16401179	     65.40205041	    -19.03808611	      1.14148112	     17.73237679	     22.41689353	     -7.51276422	    -16.06487113	     12.48312644	    -12.50244480	     21.17516505	     -9.80372406	      0.36957635	     28.27572815	     31.35049562	     -7.51276422	    -50.70958591	     -3.02775847	     -4.50855274	      3.36948530	    -13.69733239	     -0.63571671	     43.20774830	     90.00000001	      0.00000000	      0.00000000	      4.20475976	    -12.72329984	     -6.03966076	     43.28645003	     90.00000001	      0.00000000	      0.00000000
      1.89000000	     23.86340260	      7.17919411	      1.84666572	     -0.38970709	      0.92379021	      0.11678085	    -10.45610738	    -13.93658840	    -39.11651554	     65.15684944	    -18.98828749	      1.13720155	     20.36400822	     22.88383084	     -7.51221639	    -17.45134195	     12.53609592	    -10.98120295	     20.25909683	     -9.57231386	      0.35358794	     28.45449852	     30.29924110	     -7.51221639	    -50.79016045	     -2.72205972	     -4.91410204	      3.32545606	    -13.46462941	     -0.67424608	     43.11959316	     90.00000001	      0.00000000	      0.00000000	      4.93663041	    -13.22594245	     -5.88264158	     44.53462097	     90.00000001	      0.00000000	      0.00000000
      1.90000000	     23.71784839	      7.06834039	      2.07647242	     -0.37782985	      0.92416302	      0.11658366	     -8.14932385	    -13.87202044	    -39.10506737	     64.58740766	    -19.06487220	      1.12726292	     21.01258350	     22.56854983	     -7.51206032	    -18.41805347	     12.34815463	    -10.61046422	     19.78823256	     -9.54730491	      0.34536981	     28.60659182	     30.04854388	     -7.51206032	    -50.77875157	     -2.36065280	     -5.28660036	      3.19954877	    -13.20691594	     -0.61320272	     43.15373952	     90.00000001	      0.00000000	      0.00000000	      6.08078577	    -13.65005932	     -5.90577325	     45.11661292	     90.00000001	      0.00000000	      0.00000000
      1.91000000	     23.71684247	      7.05558423	      2.32093176	     -0.36570497	      0.92435519	      0.11622942	     -6.18517568	    -13.91093601	    -39.15629246	     63.71243554	    -19.06934336	      1.11199177	     23.21652466	     22.51806897	     -7.51171040	    -19.94245992	     12.39366830	     -9.04599236	     18.71418105	     -9.38378182	      0.32662408	     29.12230886	     29.75397932	     -7.51171040	    -50.83765475	     -2.05118278	     -5.70178597	      3.08355790	    -13.04888078	     -0.68396786	     43.06128878	     90.00000001	      0.00000000	      0.00000000	      6.91768239	    -14.07798333	     -5.76497663	     46.09038315	     90.00000001	      0.00000000	      0.00000000
